<?xml version="1.0" encoding="UTF-8"?>
<svg width="20px" height="20px" viewBox="0 0 20 20" version="1.1" xmlns="http://www.w3.org/2000/svg" xmlns:xlink="http://www.w3.org/1999/xlink">
    <!-- Generator: Sketch 43.1 (39012) - http://www.bohemiancoding.com/sketch -->
    <title>icon-contant</title>
    <desc>Created with Sketch.</desc>
    <defs></defs>
    <g id="Page-1" stroke="none" stroke-width="1" fill="none" fill-rule="evenodd" opacity="0.600000024">
        <g id="Large-Devices-(-≥-1200px-)" transform="translate(-405.000000, -800.000000)" stroke="#7F808E" stroke-width="2" fill-rule="nonzero">
            <g id="Group-23" transform="translate(210.000000, 764.000000)">
                <g id="Group-10" transform="translate(0.000000, 34.000000)">
                    <g id="Group-5" transform="translate(197.000000, 0.000000)">
                        <path d="M9.5675353,20.7126291 L9.48503011,20.6880761 C9.50983284,20.6930131 9.53742163,20.7008049 9.56753394,20.7126286 L9.5675353,20.7126291 Z M9.59751912,20.721552 L9.51469694,20.6786606 C9.21785287,20.5436672 8.94569525,20.3707722 8.70775179,20.1649469 L8.62426246,20.1001142 C4.14626311,16.9877011 1.86343704,11.9744507 1.08120349,7.1206174 L1.06253851,7.00479946 L1.04279885,6.95723012 C1.02988903,6.85882329 1.01971071,6.75165385 1.01025756,6.61711516 C0.92144306,5.29913905 1.39848027,4.26094957 2.29020377,3.72530238 C4.02140103,2.6851947 6.6598052,2.76041453 7.375692,3.95197317 C8.27625817,5.45183335 7.8709618,7.32877875 6.516814,8.14218952 C6.15313702,8.36062341 5.75028645,8.48787192 5.32692965,8.51873314 L3.92689194,8.62079095 L4.48076587,9.91065336 C5.24567478,11.6919743 6.35752936,13.6302182 7.57510316,15.1712958 L8.43350363,16.2577694 L9.19496636,15.1012874 C9.42007566,14.7593995 9.71073109,14.4786758 10.0546096,14.2720908 C11.4099513,13.4581613 13.2566385,13.9817072 14.1575917,15.4815846 L14.1575917,15.4815846 C14.9501699,16.8010428 13.8709373,19.7205509 12.3163637,20.6542782 C11.9415166,20.8794313 11.4724024,21 10.9619667,21 C10.5332379,21 10.0866875,20.9112952 9.662594,20.7409178 L9.59751912,20.721552 Z" id="Shape"></path>
                    </g>
                </g>
            </g>
        </g>
    </g>
</svg>