<?xml version="1.0" encoding="UTF-8"?>
<svg width="20px" height="20px" viewBox="0 0 20 20" version="1.1" xmlns="http://www.w3.org/2000/svg" xmlns:xlink="http://www.w3.org/1999/xlink">
    <!-- Generator: Sketch 43.1 (39012) - http://www.bohemiancoding.com/sketch -->
    <title>Group 3</title>
    <desc>Created with Sketch.</desc>
    <defs></defs>
    <g id="Page-1" stroke="none" stroke-width="1" fill="none" fill-rule="evenodd">
        <g id="Large-Devices-(-≥-1200px-)" transform="translate(-361.000000, -965.000000)">
            <g id="Group-22" transform="translate(210.000000, 930.000000)">
                <g id="Group-11" transform="translate(0.000000, 34.000000)">
                    <g id="Group-8" transform="translate(151.000000, 0.000000)">
                        <g id="Group-3" transform="translate(0.000000, 1.000000)">
                            <circle id="Oval-6" fill="#3B5998" cx="10" cy="10" r="10"></circle>
                            <path d="M10.8944828,16 L10.8944828,10.5262684 L12.6635109,10.5262684 L12.9283578,8.39301981 L10.8944828,8.39301981 L10.8944828,7.03103485 C10.8944828,6.4134096 11.0595914,5.99253257 11.9123636,5.99253257 L13,5.99200297 L13,4.0840483 C12.8118435,4.05809766 12.1662474,4 11.4151511,4 C9.84702723,4 8.77351531,4.99412139 8.77351531,6.81982841 L8.77351531,8.39301981 L7,8.39301981 L7,10.5262684 L8.77351531,10.5262684 L8.77351531,16 L10.8944828,16 Z" id="Fill-4" fill="#FEFEFE"></path>
                        </g>
                    </g>
                </g>
            </g>
        </g>
    </g>
</svg>