<?xml version="1.0" encoding="UTF-8"?>
<svg width="20px" height="20px" viewBox="0 0 20 20" version="1.1" xmlns="http://www.w3.org/2000/svg" xmlns:xlink="http://www.w3.org/1999/xlink">
    <!-- Generator: Sketch 43.1 (39012) - http://www.bohemiancoding.com/sketch -->
    <title>icon-twitter</title>
    <desc>Created with Sketch.</desc>
    <defs>
        <circle id="path-1" cx="10" cy="10" r="10"></circle>
        <polygon id="path-3" points="10 20 20 20 20 0 10 0 0 0 0 20 10 20"></polygon>
    </defs>
    <g id="Page-1" stroke="none" stroke-width="1" fill="none" fill-rule="evenodd">
        <g id="Large-Devices-(-≥-1200px-)" transform="translate(-210.000000, -965.000000)">
            <g id="Group-22" transform="translate(210.000000, 930.000000)">
                <g id="Group-11" transform="translate(0.000000, 34.000000)">
                    <g id="Group-9">
                        <g id="Page-1-Copy" transform="translate(0.000000, 1.000000)">
                            <mask id="mask-2" fill="white">
                                <use xlink:href="#path-1"></use>
                            </mask>
                            <use id="Mask" fill="#D8D8D8" xlink:href="#path-1"></use>
                            <g id="Page-1" mask="url(#mask-2)">
                                <g id="Group-3">
                                    <mask id="mask-4" fill="white">
                                        <use xlink:href="#path-3"></use>
                                    </mask>
                                    <use id="Clip-2" fill="#00ACED" xlink:href="#path-3"></use>
                                </g>
                                <path d="M8.30204,15 C12.26432,15 14.43152,11.5371612 14.43152,8.534203 C14.43152,8.43584704 14.43152,8.33793412 14.42522,8.24046424 C14.8468292,7.91877417 15.2107693,7.52046288 15.5,7.06418008 C15.1068292,7.24795589 14.6897483,7.368476 14.26268,7.4217173 C14.7123925,7.13771759 15.0489719,6.69103527 15.20978,6.16479898 C14.7869061,6.42949849 14.3242714,6.61604551 13.84184,6.71638985 C13.1740748,5.96737564 12.1130021,5.78405178 11.2536107,6.26921576 C10.3942193,6.75437974 9.9502355,7.78737364 10.17062,8.78895381 C8.43849621,8.69735407 6.82467983,7.83433531 5.7308,6.41467629 C5.15902156,7.45301609 5.45107491,8.78135979 6.39776,9.44820459 C6.0549313,9.43748625 5.71957734,9.33993026 5.42,9.16376978 L5.42,9.19256769 C5.42028062,10.274303 6.14313562,11.2060007 7.1483,11.4201974 C6.83114523,11.511438 6.49838385,11.5247756 6.17558,11.4591853 C6.45779813,12.3848934 7.26656132,13.0190506 8.18822,13.0373112 C7.42538872,13.6697276 6.48304499,14.0130412 5.51282,14.0120099 C5.3414195,14.0116628 5.17018571,14.0007156 5,13.9792246 C5.9851671,14.6461297 7.13146363,14.9998746 8.30204,14.9982278" id="Shape" fill="#FEFEFE" fill-rule="nonzero"></path>
                            </g>
                        </g>
                    </g>
                </g>
            </g>
        </g>
    </g>
</svg>