<?xml version="1.0" encoding="UTF-8"?>
<svg width="20px" height="20px" viewBox="0 0 20 20" version="1.1" xmlns="http://www.w3.org/2000/svg" xmlns:xlink="http://www.w3.org/1999/xlink">
    <!-- Generator: Sketch 43.1 (39012) - http://www.bohemiancoding.com/sketch -->
    <title>icon-location</title>
    <desc>Created with Sketch.</desc>
    <defs></defs>
    <g id="Page-1" stroke="none" stroke-width="1" fill="none" fill-rule="evenodd" opacity="0.600000024">
        <g id="Large-Devices-(-≥-1200px-)" transform="translate(-207.000000, -845.000000)" stroke="#7F808E" stroke-width="2">
            <g id="Group-23" transform="translate(207.000000, 764.000000)">
                <g id="Group-10" transform="translate(0.000000, 34.000000)">
                    <g id="Group-20" transform="translate(0.000000, 44.000000)">
                        <g id="Group-19" transform="translate(0.000000, 3.000000)">
                            <path d="M10,18.3198577 C9.90897703,18.1943183 9.81534628,18.064379 9.7193745,17.9303155 C8.90946671,16.7989508 8.09962234,15.6080394 7.34513312,14.4151916 C6.85283303,13.6368649 6.40051356,12.8830212 5.99683542,12.1630004 C4.71824641,9.88244407 4,8.0591139 4,7 C4,3.6862915 6.6862915,1 10,1 C13.3137085,1 16,3.6862915 16,7 C16,8.0591139 15.2817536,9.88244407 14.0031646,12.1630004 C13.5994864,12.8830212 13.147167,13.6368649 12.6548669,14.4151916 C11.9003777,15.6080394 11.0905333,16.7989508 10.2806255,17.9303155 C10.1846537,18.064379 10.091023,18.1943183 10,18.3198577 Z" id="Oval-4"></path>
                            <circle id="Oval-5" cx="10" cy="7" r="1"></circle>
                        </g>
                    </g>
                </g>
            </g>
        </g>
    </g>
</svg>