<?xml version="1.0" encoding="UTF-8"?>
<svg width="32px" height="32px" viewBox="0 0 32 32" version="1.1" xmlns="http://www.w3.org/2000/svg" xmlns:xlink="http://www.w3.org/1999/xlink">
    <!-- Generator: Sketch 43.1 (39012) - http://www.bohemiancoding.com/sketch -->
    <title>photo-upload</title>
    <desc>Created with Sketch.</desc>
    <defs></defs>
    <g id="Page-1" stroke="none" stroke-width="1" fill="none" fill-rule="evenodd">
        <g id="Large-Devices-(-≥-1200px-)" transform="translate(-242.000000, -661.000000)">
            <g id="photo-upload" transform="translate(242.000000, 661.000000)">
                <rect id="Path" x="0" y="0" width="32" height="32"></rect>
                <path d="M6.9994127,8 C7.55202181,8 8,7.55703174 8,7.00034854 L8,4.99791312 C8,3.89449617 8.89451376,3 9.99406028,3 L22.0059397,3 C23.1072288,3 24,3.89826062 24,4.99791312 L24,7.00034854 C24,7.5524408 24.4440627,8 25.0005873,8 L29.0038998,8 C30.6586002,8 32,9.34331197 32,10.9942021 L32,25.0057979 C32,26.6594501 30.6657405,28 29.0038998,28 L2.99610022,28 C1.34139976,28 0,26.656688 0,25.0057979 L0,10.9942021 C0,9.34054993 1.33425951,8 2.99610022,8 L6.9994127,8 Z M16,23 C19.3137085,23 22,20.3137085 22,17 C22,13.6862915 19.3137085,11 16,11 C12.6862915,11 10,13.6862915 10,17 C10,20.3137085 12.6862915,23 16,23 Z M27,12 C27.5522847,12 28,11.5522847 28,11 C28,10.4477153 27.5522847,10 27,10 C26.4477153,10 26,10.4477153 26,11 C26,11.5522847 26.4477153,12 27,12 Z" id="Combined-Shape" fill="#BBBCC3"></path>
            </g>
        </g>
    </g>
</svg>